<svg xmlns="http://www.w3.org/2000/svg" viewBox="0 0 512 512" fill="#10b981">
    <rect width="512" height="512" rx="100" fill="#0f172a"/>
    <path d="M256 100c-22 0-40 18-40 40v140c-25 15-40 42-40 70 0 50 40 90 90 90s90-40 90-90c0-28-15-55-40-70V140c0-22-18-40-40-40zm0 30c5.5 0 10 4.5 10 10v160l20 15c15 10 25 25 25 45 0 35-25 60-60 60s-60-25-60-60c0-20 10-35 25-45l20-15V140c0-5.5 4.5-10 10-10z" fill="#38bdf8"/>
    <circle cx="256" cy="350" r="25" fill="#ef4444"/>
    <rect x="246" y="200" width="20" height="150" fill="#ef4444"/>
</svg>
